<?xml version="1.0" encoding="iso-8859-1"?>
<!-- Generator: Adobe Illustrator 19.0.0, SVG Export Plug-In . SVG Version: 6.00 Build 0)  -->
<svg xmlns="http://www.w3.org/2000/svg" xmlns:xlink="http://www.w3.org/1999/xlink" version="1.1" id="Capa_1" x="0px" y="0px" viewBox="0 0 511.999 511.999" style="enable-background:new 0 0 511.999 511.999;" xml:space="preserve" width="512px" height="512px">
<g>
	<g>
		<path d="M508.55,326.181c-4.6-11.102-13.246-19.749-24.349-24.347c-5.499-2.277-11.286-3.432-17.204-3.432    c-13.048,0-25.102,5.567-33.471,14.898l-32.042-13.272c4.226-13.94,6.509-28.718,6.509-44.02c0-15.306-2.284-30.086-6.512-44.031    l32.045-13.273c8.371,9.335,20.426,14.903,33.476,14.903c5.918,0,11.706-1.155,17.206-3.433    c22.918-9.495,33.839-35.863,24.347-58.781c-6.991-16.875-23.311-27.78-41.576-27.78c-5.919,0-11.707,1.155-17.207,3.434    c-18.059,7.481-28.66,25.44-27.702,43.932l-32.102,13.297c-14.168-26.355-35.885-48.072-62.241-62.239l13.293-32.092    c0.787,0.041,1.576,0.065,2.368,0.065c18.267,0,34.586-10.904,41.576-27.782c4.599-11.102,4.598-23.332-0.001-34.433    c-4.6-11.102-13.246-19.749-24.349-24.348c-5.499-2.277-11.286-3.432-17.204-3.432c-18.267,0-34.586,10.904-41.576,27.781    c-4.599,11.102-4.599,23.332,0.001,34.434c2.612,6.306,6.533,11.815,11.464,16.245l-13.275,32.048    c-13.941-4.228-28.721-6.51-44.024-6.51s-30.08,2.283-44.022,6.509l-13.284-32.072c13.757-12.398,18.962-32.598,11.48-50.659    c-6.991-16.875-23.311-27.78-41.577-27.78c-5.918,0-11.706,1.155-17.206,3.433c-22.917,9.493-33.838,35.863-24.346,58.781    c6.991,16.875,23.31,27.78,41.576,27.78c0.79,0,1.577-0.024,2.361-0.065l13.293,32.093    c-26.356,14.167-48.074,35.883-62.242,62.238l-32.076-13.286c0.356-6.623-0.768-13.294-3.381-19.603    c-4.6-11.102-13.246-19.749-24.349-24.348c-5.499-2.277-11.286-3.432-17.204-3.432c-18.267,0-34.586,10.905-41.576,27.782    c-4.599,11.102-4.598,23.331,0.001,34.433c4.6,11.102,13.246,19.749,24.349,24.347c5.499,2.277,11.286,3.432,17.204,3.432    c13.048,0,25.102-5.567,33.471-14.898l32.046,13.273c-4.229,13.944-6.513,28.727-6.513,44.034c0,15.301,2.282,30.078,6.508,44.018    l-32.041,13.271c-8.371-9.335-20.426-14.903-33.476-14.903c-5.918,0-11.706,1.155-17.206,3.433    c-22.918,9.495-33.839,35.863-24.347,58.781c6.991,16.875,23.311,27.78,41.576,27.78c5.919,0,11.707-1.155,17.207-3.434    c18.059-7.481,28.66-25.44,27.702-43.932l32.095-13.294c14.167,26.359,35.885,48.079,62.243,62.248l-13.288,32.08    c-0.787-0.041-1.576-0.065-2.368-0.065c-18.267,0-34.586,10.904-41.576,27.782c-4.599,11.102-4.598,23.332,0.001,34.433    c4.6,11.102,13.246,19.749,24.349,24.348c5.499,2.277,11.286,3.432,17.204,3.432c18.267,0,34.586-10.904,41.576-27.781    c4.599-11.102,4.599-23.332-0.001-34.434c-2.612-6.306-6.533-11.815-11.464-16.245l13.269-32.035    c13.943,4.229,28.724,6.512,44.03,6.512c15.305,0,30.084-2.283,44.027-6.511l13.279,32.059    c-13.757,12.398-18.962,32.598-11.48,50.659c6.991,16.875,23.311,27.78,41.577,27.78c5.918,0,11.706-1.155,17.206-3.433    c22.917-9.493,33.838-35.863,24.346-58.781c-6.991-16.875-23.31-27.78-41.576-27.78c-0.79,0-1.577,0.024-2.361,0.065    l-13.288-32.081c26.358-14.169,48.076-35.888,62.244-62.247l32.069,13.283c-0.356,6.623,0.768,13.294,3.381,19.603    c4.6,11.102,13.246,19.749,24.349,24.348c5.499,2.277,11.286,3.432,17.204,3.432c18.267,0,34.586-10.905,41.576-27.782    C513.15,349.512,513.149,337.284,508.55,326.181z M461.253,154.761c1.841-0.763,3.767-1.149,5.726-1.149    c6.09,0,11.53,3.636,13.86,9.262c3.164,7.637-0.476,16.423-8.112,19.587c-1.841,0.762-3.768,1.149-5.726,1.149    c-6.09,0-11.53-3.636-13.86-9.261C449.977,166.711,453.617,157.925,461.253,154.761z M329.549,39.278    c2.33-5.626,7.771-9.261,13.86-9.261c1.958,0,3.885,0.387,5.726,1.149c3.699,1.532,6.581,4.413,8.113,8.113    c1.532,3.699,1.532,7.774,0,11.473c-2.33,5.626-7.771,9.262-13.86,9.262c-1.958,0-3.885-0.387-5.726-1.149    c-3.699-1.532-6.581-4.414-8.113-8.113C328.017,47.052,328.016,42.978,329.549,39.278z M174.346,58.86    c-1.841,0.763-3.767,1.149-5.725,1.149c-6.09,0-11.53-3.635-13.86-9.26c-3.164-7.637,0.476-16.423,8.111-19.587    c1.841-0.762,3.768-1.149,5.726-1.149c6.091,0,11.531,3.635,13.861,9.261C185.622,46.909,181.983,55.696,174.346,58.86z     M58.862,174.339c-2.33,5.626-7.771,9.262-13.86,9.262c-1.958,0-3.885-0.387-5.726-1.149c-3.699-1.532-6.581-4.413-8.113-8.113    c-1.532-3.699-1.532-7.774,0-11.473c2.33-5.627,7.771-9.263,13.86-9.263c1.958,0,3.885,0.387,5.726,1.149    c3.699,1.532,6.581,4.413,8.113,8.113C60.395,166.564,60.395,170.639,58.862,174.339z M50.746,357.241    c-1.841,0.763-3.767,1.149-5.726,1.149c-6.09,0-11.53-3.636-13.86-9.262c-3.164-7.637,0.476-16.423,8.112-19.587    c1.841-0.762,3.768-1.149,5.726-1.149c6.09,0,11.53,3.636,13.86,9.262C62.023,345.29,58.383,354.077,50.746,357.241z     M182.45,472.724c-2.33,5.626-7.771,9.261-13.86,9.261c-1.958,0-3.885-0.387-5.726-1.149c-3.699-1.532-6.581-4.413-8.113-8.113    c-1.532-3.699-1.532-7.774,0-11.473c2.33-5.626,7.771-9.262,13.86-9.262c1.958,0,3.885,0.387,5.726,1.149    c3.699,1.532,6.581,4.414,8.113,8.113C183.982,464.949,183.982,469.024,182.45,472.724z M134.929,271.007h37.967    c1.718,33.214,9.117,64.215,21.276,88.533c0.387,0.774,0.781,1.533,1.176,2.29C162.834,343.121,139.714,309.861,134.929,271.007z     M194.172,152.477c-12.158,24.318-19.557,55.317-21.276,88.532h-37.967c4.785-38.855,27.906-72.114,60.419-90.822    C194.953,150.944,194.559,151.703,194.172,152.477z M241,372.342c-7.132-5.327-14.021-14.267-19.997-26.219    c-10.169-20.338-16.426-46.6-18.058-75.116H241V372.342z M241,241.009h-38.055c1.632-28.518,7.89-54.778,18.058-75.116    C226.978,153.941,233.869,145,241,139.674V241.009z M270.999,139.675c7.132,5.326,14.021,14.267,19.997,26.218    c10.168,20.338,16.426,46.6,18.058,75.116h-38.055V139.675z M290.996,346.123c-5.976,11.951-12.865,20.892-19.997,26.219V271.007    h38.055C307.422,299.525,301.164,325.785,290.996,346.123z M337.654,453.142c1.841-0.763,3.767-1.149,5.725-1.149    c6.09-0.001,11.53,3.635,13.86,9.26c3.164,7.637-0.476,16.423-8.111,19.587c-1.841,0.762-3.768,1.149-5.726,1.149    c-6.091,0-11.531-3.635-13.861-9.26C326.377,465.092,330.017,456.306,337.654,453.142z M316.651,361.829    c0.395-0.757,0.789-1.516,1.176-2.29c12.159-24.318,19.558-55.317,21.277-88.532h37.967    C372.286,309.862,349.164,343.122,316.651,361.829z M339.103,241.009c-1.718-33.214-9.117-64.215-21.277-88.532    c-0.387-0.774-0.781-1.533-1.176-2.29c32.513,18.708,55.635,51.967,60.42,90.822H339.103z M480.836,349.135    c-2.33,5.627-7.771,9.263-13.86,9.263c-1.958,0-3.885-0.387-5.726-1.149c-3.699-1.532-6.581-4.413-8.113-8.113    c-1.532-3.699-1.532-7.774,0-11.473c2.33-5.626,7.771-9.262,13.86-9.262c1.958,0,3.885,0.387,5.726,1.149    c3.699,1.532,6.581,4.413,8.113,8.113C482.368,341.361,482.368,345.435,480.836,349.135z" fill="#4a5960"/>
	</g>
</g>
<g>
</g>
<g>
</g>
<g>
</g>
<g>
</g>
<g>
</g>
<g>
</g>
<g>
</g>
<g>
</g>
<g>
</g>
<g>
</g>
<g>
</g>
<g>
</g>
<g>
</g>
<g>
</g>
<g>
</g>
</svg>
